<?xml version="1.0" encoding="utf-8"?>
<!-- Generator: Adobe Illustrator 27.1.1, SVG Export Plug-In . SVG Version: 6.00 Build 0)  -->
<svg version="1.1" id="Layer_1" xmlns="http://www.w3.org/2000/svg" xmlns:xlink="http://www.w3.org/1999/xlink" x="0px" y="0px"
	 viewBox="0 0 400 400" style="enable-background:new 0 0 400 400;" xml:space="preserve">
<style type="text/css">
	.st0{fill:#222159;}
</style>
<g>
	<path class="st0" d="M204,152.4l-0.5-0.7c-5.1,3-10,6.4-14.8,10.4c-10.6,8.8-19.3,19.2-26.1,30.6c12.7-25.3,28.1-44.9,45.3-56.7
		c-12.1-6-23.9-16.1-34.8-30.7l-0.6-0.7c-2.9,6.3-5.6,13.2-8,20.6c-9.1,27.2-13.7,57.6-14.3,87.7c0.7-51.2,7.1-94.4,19-122.9
		c-10.2-2-21.3-9.3-33-22.5l-0.3-0.3c0,0,0,0,0,0l0,0l-0.3-0.3c0,0.2,0,0.5,0,0.8l-0.3,0.4C122,85.4,108.7,95.4,96.2,98.7
		c16.8,34.4,28,87.4,32.6,150.9c-3-37.3-11-74.7-24.2-107.7c-3.6-8.9-7.5-17.3-11.5-24.9l-0.6,1c-12.5,19-26.4,32.6-41,41
		c22.2,13.2,42.8,36.3,60.5,66.6c-9.2-13.6-20.8-25.8-34.7-35.8c-6.1-4.5-12.5-8.4-19-11.7l-0.6,1c-13,19.9-28.7,36.6-46.2,50.1
		c42-2.9,83.3,8.5,118.1,31.6c5.4-35.2,8.7-72,9.5-108.3c2.6,23.5,6.2,46.9,11.1,69.4c26.8-20.3,59.4-31.7,93.3-31.6
		C228.7,180.3,215.4,167.7,204,152.4z M180.9,153.5l-5.9-2.9l4.3-6.2l6.1,3.1L180.9,153.5z M192.3,137.8l-4.9,6.6l-6.2-3.2l4.8-6.9
		L192.3,137.8z M176.4,128.9l7,3.8l-5,7.4l-6.8-3.5L176.4,128.9z M169.9,139.3l6.7,3.4l-4.5,6.7l-6.6-3.2L169.9,139.3z M89.7,148.6
		l4.8,7.6l-6.7,3.5l-4.9-7.3L89.7,148.6z M73.9,157.5l6.2-3.4l4.7,6.8l-6.1,3.2L73.9,157.5z M85.3,173l-4.4-6l6-3.1l4.3,6.2
		L85.3,173z M93.9,169l-4.5-6.6l6.7-3.4l4.3,6.9L93.9,169z M57.5,196.5l6.6,4.8l-4.2,5.2l-6.6-4.5L57.5,196.5z M48,209.2l3.8-4.9
		l6.3,4.2l-3.8,4.7L48,209.2z M62.9,218.6l-5.7-3.6l3.7-4.6l5.7,3.8L62.9,218.6z M68.4,212.3l-6-4.1l4.2-5.1l6,4.4L68.4,212.3z
		 M131.5,120.5h-9.4v-9.9h9.4V120.5z M131.5,106h-9.4v-9.9h9.4V106z M145.5,120.8h-9.9v-10.4h9.9V120.8z M145.5,106.3h-9.9V95.9h9.9
		V106.3z M203.8,169.7l3.9,5.1l-6.2,4.3l-3.9-4.9L203.8,169.7z M189.7,179.9l5.6-4.1l3.9,4.8l-5.6,3.9L189.7,179.9z M198.8,190.3
		l-3.5-4.1l5.4-3.6l3.5,4.3L198.8,190.3z M206.8,185.3l-3.5-4.4l5.9-3.9l3.5,4.6L206.8,185.3z"/>
</g>
<g>
	<path class="st0" d="M172.2,227.7c3.5,3,5.3,7.6,5.3,13.8s-1.8,10.7-5.4,13.6c-3.6,2.9-9.1,4.3-16.5,4.3h-6.7v14h-11.2v-50.1h17.7
		C163.1,223.3,168.7,224.8,172.2,227.7z M164,247.5c1.3-1.5,2-3.7,2-6.6c0-2.9-0.9-4.9-2.6-6.2c-1.7-1.2-4.5-1.8-8.1-1.8h-6.4v16.8
		h7.5C160.1,249.7,162.7,249,164,247.5z"/>
	<path class="st0" d="M222.3,223.3v10h-24.9v10.3h22.4v9.5h-22.4v10.4h25.7v9.9h-36.9v-50.1H222.3z"/>
	<path class="st0" d="M268.8,273.4l-4.7-10.8h-21l-4.7,10.8h-11.9l21.6-50.1H259l21.6,50.1H268.8z M253.7,238.2l-6.3,14.5h12.5
		L253.7,238.2z"/>
	<path class="st0" d="M327.1,239.9c0,8-3.2,13.2-9.5,15.6l12.7,17.9h-13.8l-11.1-16h-7.7v16h-11.2v-50.1h19c7.8,0,13.3,1.3,16.7,3.9
		C325.5,229.8,327.1,234.1,327.1,239.9z M313.6,245.8c1.4-1.2,2.1-3.2,2.1-5.9c0-2.7-0.7-4.6-2.2-5.6c-1.4-1-3.9-1.5-7.5-1.5h-8.4
		v14.8h8.2C309.7,247.7,312.3,247.1,313.6,245.8z"/>
	<path class="st0" d="M338.6,273.4v-50.1h11.2v40.1h21.4v10H338.6z"/>
</g>
<g>
	<path class="st0" d="M162.5,278.7v20.1h-2.7v-14.3c0-0.2,0-0.4,0-0.7c0-0.2,0-0.5,0.1-0.7l-7,12.2c-0.2,0.5-0.6,0.7-1.1,0.7h-0.4
		c-0.5,0-0.9-0.2-1.1-0.7L143,283c0.1,0.5,0.1,1,0.1,1.5v14.3h-2.8v-20.1h2.3c0.3,0,0.5,0,0.6,0.1c0.2,0.1,0.3,0.2,0.4,0.4l7.1,12
		c0.1,0.2,0.3,0.5,0.4,0.8s0.2,0.5,0.3,0.8c0.2-0.5,0.4-1.1,0.7-1.6l6.9-12c0.1-0.2,0.3-0.4,0.4-0.4c0.2-0.1,0.4-0.1,0.6-0.1H162.5z
		"/>
	<path class="st0" d="M187.4,298.8h-2.4c-0.3,0-0.5-0.1-0.7-0.2c-0.2-0.1-0.3-0.3-0.4-0.5l-1.9-4.7h-9.3l-1.9,4.7
		c-0.1,0.2-0.2,0.3-0.4,0.5c-0.2,0.1-0.4,0.2-0.7,0.2h-2.4l8.4-20.1h3.2L187.4,298.8z M181.2,291.3l-3.1-7.8c-0.2-0.5-0.5-1.2-0.7-2
		c-0.1,0.4-0.2,0.8-0.3,1.1s-0.2,0.7-0.3,0.9l-3.1,7.8H181.2z"/>
	<path class="st0" d="M209.5,278.7v20.1h-1.6c-0.2,0-0.4,0-0.6-0.1c-0.2-0.1-0.3-0.2-0.5-0.4l-11.9-14.7c0,0.3,0,0.5,0.1,0.7
		s0,0.5,0,0.7v13.8h-2.8v-20.1h1.6c0.3,0,0.5,0,0.6,0.1c0.1,0.1,0.3,0.2,0.5,0.4l12,14.7c0-0.3-0.1-0.5-0.1-0.8c0-0.3,0-0.5,0-0.7
		v-13.7H209.5z"/>
	<path class="st0" d="M234.3,298.8h-2.4c-0.3,0-0.5-0.1-0.7-0.2c-0.2-0.1-0.3-0.3-0.4-0.5l-1.9-4.7h-9.3l-1.9,4.7
		c-0.1,0.2-0.2,0.3-0.4,0.5c-0.2,0.1-0.4,0.2-0.7,0.2h-2.4l8.4-20.1h3.2L234.3,298.8z M228.1,291.3l-3.1-7.8c-0.2-0.5-0.5-1.2-0.7-2
		c-0.1,0.4-0.2,0.8-0.3,1.1c-0.1,0.3-0.2,0.7-0.3,0.9l-3.1,7.8H228.1z"/>
	<path class="st0" d="M255.8,289v7.8c-1.1,0.7-2.2,1.3-3.4,1.6c-1.2,0.4-2.5,0.5-3.9,0.5c-1.7,0-3.2-0.3-4.6-0.8
		c-1.4-0.5-2.6-1.2-3.5-2.1s-1.7-2-2.2-3.2s-0.8-2.6-0.8-4.1c0-1.5,0.3-2.9,0.8-4.2s1.2-2.3,2.2-3.2s2.1-1.6,3.4-2.1
		c1.3-0.5,2.8-0.7,4.5-0.7c0.8,0,1.6,0.1,2.3,0.2s1.4,0.3,2,0.5c0.6,0.2,1.2,0.5,1.7,0.8c0.5,0.3,1,0.7,1.5,1.1l-0.9,1.3
		c-0.1,0.2-0.3,0.3-0.5,0.4c-0.2,0.1-0.5,0-0.7-0.2c-0.3-0.1-0.5-0.3-0.8-0.5c-0.3-0.2-0.7-0.4-1.1-0.5c-0.4-0.2-0.9-0.3-1.5-0.4
		c-0.6-0.1-1.2-0.2-2-0.2c-1.2,0-2.2,0.2-3.1,0.5s-1.7,0.9-2.4,1.5c-0.7,0.7-1.2,1.5-1.5,2.4c-0.4,0.9-0.5,2-0.5,3.2
		c0,1.2,0.2,2.3,0.6,3.3c0.4,1,0.9,1.8,1.6,2.5c0.7,0.7,1.5,1.2,2.5,1.5c1,0.4,2.1,0.5,3.3,0.5c0.5,0,0.9,0,1.3-0.1
		c0.4-0.1,0.8-0.1,1.2-0.2c0.4-0.1,0.7-0.2,1.1-0.3s0.7-0.3,1-0.5v-4.2h-3.1c-0.2,0-0.4-0.1-0.5-0.2c-0.1-0.1-0.2-0.3-0.2-0.4V289
		H255.8z"/>
	<path class="st0" d="M275.4,296.4l0,2.4h-13.1v-20.1h13.1v2.4h-9.9v6.4h8v2.3h-8v6.5H275.4z"/>
	<path class="st0" d="M303.6,278.7v20.1h-2.7v-14.3c0-0.2,0-0.4,0-0.7c0-0.2,0-0.5,0.1-0.7l-7,12.2c-0.2,0.5-0.6,0.7-1.1,0.7h-0.4
		c-0.5,0-0.9-0.2-1.1-0.7l-7.2-12.3c0.1,0.5,0.1,1,0.1,1.5v14.3h-2.8v-20.1h2.3c0.3,0,0.5,0,0.6,0.1c0.2,0.1,0.3,0.2,0.4,0.4l7.1,12
		c0.1,0.2,0.3,0.5,0.4,0.8c0.1,0.3,0.2,0.5,0.3,0.8c0.2-0.5,0.4-1.1,0.7-1.6l6.9-12c0.1-0.2,0.3-0.4,0.4-0.4
		c0.2-0.1,0.4-0.1,0.6-0.1H303.6z"/>
	<path class="st0" d="M324.2,296.4l0,2.4h-13.1v-20.1h13.1v2.4h-9.9v6.4h8v2.3h-8v6.5H324.2z"/>
	<path class="st0" d="M347.5,278.7v20.1h-1.6c-0.2,0-0.4,0-0.6-0.1c-0.2-0.1-0.3-0.2-0.5-0.4l-11.9-14.7c0,0.3,0,0.5,0.1,0.7
		s0,0.5,0,0.7v13.8h-2.8v-20.1h1.6c0.3,0,0.5,0,0.6,0.1c0.1,0.1,0.3,0.2,0.5,0.4l12,14.7c0-0.3-0.1-0.5-0.1-0.8c0-0.3,0-0.5,0-0.7
		v-13.7H347.5z"/>
	<path class="st0" d="M369.4,281.2h-6.7v17.6h-3.1v-17.6h-6.7v-2.5h16.6V281.2z"/>
</g>
</svg>
